<?xml version="1.0" encoding="iso-8859-1"?>
<!-- Generator: Adobe Illustrator 18.0.0, SVG Export Plug-In . SVG Version: 6.00 Build 0)  -->
<!DOCTYPE svg PUBLIC "-//W3C//DTD SVG 1.1//EN" "http://www.w3.org/Graphics/SVG/1.1/DTD/svg11.dtd">
<svg version="1.1" id="Capa_1" xmlns="http://www.w3.org/2000/svg" xmlns:xlink="http://www.w3.org/1999/xlink" x="0px" y="0px"
	 viewBox="0 0 297 297" style="enable-background:new 0 0 297 297;" xml:space="preserve">
<g>
	<path d="M295.431,225.622c-1.837-2.879-5.016-4.621-8.431-4.621H10c-3.415,0-6.594,1.742-8.431,4.621
		c-1.836,2.879-2.077,6.496-0.638,9.593l13,27.979c7.707,16.589,24.507,27.308,42.799,27.308h183.539
		c18.292,0,35.092-10.719,42.798-27.307l13.001-27.979C297.508,232.118,297.266,228.501,295.431,225.622z M264.93,254.767
		c-4.44,9.558-14.12,15.733-24.66,15.733H56.73c-10.54,0-20.22-6.176-24.661-15.734l-6.396-13.766h245.652L264.93,254.767z"/>
	<path d="M16.5,208.001H165c5.522,0,10-4.478,10-10v-181.5c0-4.227-2.657-7.997-6.638-9.418c-3.981-1.42-8.425-0.186-11.102,3.086
		l-148.5,181.5c-2.447,2.99-2.952,7.123-1.298,10.614C9.118,205.775,12.636,208.001,16.5,208.001z M155,44.514v143.486H37.602
		L155,44.514z"/>
	<path d="M198,208.001h82.5c3.4,0,6.567-1.728,8.408-4.586c1.84-2.858,2.103-6.457,0.695-9.552l-82.5-181.5
		c-1.947-4.287-6.62-6.633-11.221-5.636S188,11.794,188,16.501v181.5C188,203.523,192.477,208.001,198,208.001z M208,62.667
		l56.97,125.334H208V62.667z"/>
</g>
<g>
</g>
<g>
</g>
<g>
</g>
<g>
</g>
<g>
</g>
<g>
</g>
<g>
</g>
<g>
</g>
<g>
</g>
<g>
</g>
<g>
</g>
<g>
</g>
<g>
</g>
<g>
</g>
<g>
</g>
</svg>
