<?xml version="1.0" encoding="iso-8859-1"?>
<!-- Generator: Adobe Illustrator 19.0.0, SVG Export Plug-In . SVG Version: 6.00 Build 0)  -->
<svg version="1.1" id="Layer_1" xmlns="http://www.w3.org/2000/svg" xmlns:xlink="http://www.w3.org/1999/xlink" x="0px" y="0px"
	 viewBox="0 0 512 512" style="enable-background:new 0 0 512 512;" xml:space="preserve">
<g>
	<g>
		<path d="M511.3,11.948c-1.583-3.565-5.477-5.501-9.274-4.613L396.259,32.091c-4.236,0.992-6.939,5.144-6.13,9.419l2.369,12.519
			L280.109,214.794L3.521,404.98c-3.027,2.082-4.28,5.935-3.056,9.399c1.224,3.464,4.616,5.672,8.282,5.393l177.813-13.687
			l56.477,94.827c1.479,2.483,4.146,3.967,6.977,3.967c0.405,0,0.814-0.03,1.223-0.092c3.268-0.497,5.908-2.923,6.678-6.137
			l61.915-258.394L429.114,76.929l79.389-55.006C511.709,19.701,512.884,15.514,511.3,11.948z M246.775,475.438l-48.835-81.996
			c-1.579-2.651-4.528-4.183-7.603-3.942L37.609,401.257L253.569,252.76l-13.261,18.969c-1.239,1.773-1.72,3.967-1.336,6.095
			c0.383,2.128,1.601,4.016,3.381,5.245l26.627,18.369c1.367,0.942,2.977,1.436,4.613,1.436c0.508,0,1.017-0.048,1.523-0.144
			c2.136-0.407,4.019-1.655,5.228-3.461l13.522-20.209L246.775,475.438z M271.424,283.386l-13.117-9.049L403.146,67.151l8.869,6.118
			L271.424,283.386z M423.21,61.255L408.475,51.09l-0.937-4.954l56.617-13.251L423.21,61.255z"/>
	</g>
</g>
<g>
	<g>
		<path d="M223.026,367.896l-26.628-18.368c-3.694-2.547-8.752-1.618-11.298,2.074c-2.547,3.693-1.618,8.751,2.075,11.298
			l26.628,18.368c1.408,0.971,3.014,1.437,4.604,1.437c2.58,0,5.119-1.227,6.694-3.511
			C227.648,375.503,226.719,370.444,223.026,367.896z"/>
	</g>
</g>
<g>
	<g>
		<path d="M246.742,333.585l-26.629-18.367c-3.695-2.547-8.753-1.618-11.298,2.075c-2.547,3.692-1.618,8.75,2.075,11.297
			l26.629,18.366c1.408,0.971,3.014,1.437,4.604,1.437c2.581,0,5.119-1.227,6.694-3.511
			C251.365,341.19,250.435,336.131,246.742,333.585z"/>
	</g>
</g>
<g>
	<g>
		<circle cx="237.384" cy="416.793" r="8.094"/>
	</g>
</g>
<g>
	<g>
		<circle cx="244.977" cy="392.424" r="8.094"/>
	</g>
</g>
<g>
</g>
<g>
</g>
<g>
</g>
<g>
</g>
<g>
</g>
<g>
</g>
<g>
</g>
<g>
</g>
<g>
</g>
<g>
</g>
<g>
</g>
<g>
</g>
<g>
</g>
<g>
</g>
<g>
</g>
</svg>
